<?xml version="1.0" encoding="UTF-8"?>
<svg width="956px" height="581px" viewBox="0 0 956 581" version="1.1" xmlns="http://www.w3.org/2000/svg" xmlns:xlink="http://www.w3.org/1999/xlink">
    <title>编组 6</title>
    <g id="页面-1" stroke="none" stroke-width="1" fill="none" fill-rule="evenodd">
        <g id="初始视角" transform="translate(-449.000000, -236.000000)" fill="#FFFFFF" fill-rule="nonzero">
            <g id="编组-6" transform="translate(449.000000, 236.000000)">
                <path d="M956,6 L954,6 L954,4 L956,4 L956,6 Z M956,14 L954,14 L954,12 L956,12 L956,14 Z M956,22 L954,22 L954,20 L956,20 L956,22 Z M956,30 L954,30 L954,28 L956,28 L956,30 Z M956,38 L954,38 L954,36 L956,36 L956,38 Z M956,46 L954,46 L954,44 L956,44 L956,46 Z M956,54 L954,54 L954,52 L956,52 L956,54 Z M956,62 L954,62 L954,60 L956,60 L956,62 Z M956,70 L954,70 L954,68 L956,68 L956,70 Z M956,78 L954,78 L954,76 L956,76 L956,78 Z M956,86 L954,86 L954,84 L956,84 L956,86 Z M956,94 L954,94 L954,92 L956,92 L956,94 Z M956,102 L954,102 L954,100 L956,100 L956,102 Z M956,110 L954,110 L954,108 L956,108 L956,110 Z M956,118 L954,118 L954,116 L956,116 L956,118 Z M956,126 L954,126 L954,124 L956,124 L956,126 Z M956,134 L954,134 L954,132 L956,132 L956,134 Z M956,142 L954,142 L954,140 L956,140 L956,142 Z M956,150 L954,150 L954,148 L956,148 L956,150 Z M956,158 L954,158 L954,156 L956,156 L956,158 Z M956,166 L954,166 L954,164 L956,164 L956,166 Z M956,174 L954,174 L954,172 L956,172 L956,174 Z M956,182 L954,182 L954,180 L956,180 L956,182 Z M956,190 L954,190 L954,188 L956,188 L956,190 Z M956,198 L954,198 L954,196 L956,196 L956,198 Z M956,206 L954,206 L954,204 L956,204 L956,206 Z M956,214 L954,214 L954,212 L956,212 L956,214 Z M956,222 L954,222 L954,220 L956,220 L956,222 Z M956,230 L954,230 L954,228 L956,228 L956,230 Z M956,238 L954,238 L954,236 L956,236 L956,238 Z M956,246 L954,246 L954,244 L956,244 L956,246 Z M956,254 L954,254 L954,252 L956,252 L956,254 Z M956,262 L954,262 L954,260 L956,260 L956,262 Z M956,270 L954,270 L954,268 L956,268 L956,270 Z M956,278 L954,278 L954,276 L956,276 L956,278 Z M956,286 L954,286 L954,284 L956,284 L956,286 Z M956,294 L954,294 L954,292 L956,292 L956,294 Z M956,302 L954,302 L954,300 L956,300 L956,302 Z M956,310 L954,310 L954,308 L956,308 L956,310 Z M956,318 L954,318 L954,316 L956,316 L956,318 Z M956,326 L954,326 L954,324 L956,324 L956,326 Z M956,334 L954,334 L954,332 L956,332 L956,334 Z M956,342 L954,342 L954,340 L956,340 L956,342 Z M956,350 L954,350 L954,348 L956,348 L956,350 Z M956,358 L954,358 L954,356 L956,356 L956,358 Z M956,366 L954,366 L954,364 L956,364 L956,366 Z M956,374 L954,374 L954,372 L956,372 L956,374 Z M956,382 L954,382 L954,380 L956,380 L956,382 Z M956,390 L954,390 L954,388 L956,388 L956,390 Z M956,398 L954,398 L954,396 L956,396 L956,398 Z M956,406 L954,406 L954,404 L956,404 L956,406 Z M956,414 L954,414 L954,412 L956,412 L956,414 Z M956,422 L954,422 L954,420 L956,420 L956,422 Z M956,430 L954,430 L954,428 L956,428 L956,430 Z M956,438 L954,438 L954,436 L956,436 L956,438 Z M956,446 L954,446 L954,444 L956,444 L956,446 Z M956,454 L954,454 L954,452 L956,452 L956,454 Z M956,462 L954,462 L954,460 L956,460 L956,462 Z M956,470 L954,470 L954,468 L956,468 L956,470 Z M956,478 L954,478 L954,476 L956,476 L956,478 Z M956,486 L954,486 L954,484 L956,484 L956,486 Z M956,494 L954,494 L954,492 L956,492 L956,494 Z M956,502 L954,502 L954,500 L956,500 L956,502 Z M956,510 L954,510 L954,508 L956,508 L956,510 Z M956,518 L954,518 L954,516 L956,516 L956,518 Z M956,526 L954,526 L954,524 L956,524 L956,526 Z M956,534 L954,534 L954,532 L956,532 L956,534 Z M956,542 L954,542 L954,540 L956,540 L956,542 Z M956,550 L954,550 L954,548 L956,548 L956,550 Z M956,558 L954,558 L954,556 L956,556 L956,558 Z M956,566 L954,566 L954,564 L956,564 L956,566 Z M956,574 L954,574 L954,572 L956,572 L956,574 Z M950,578 L950,576 L952,576 L952,578 L950,578 Z M942,578 L942,576 L944,576 L944,578 L942,578 Z M934,578 L934,576 L936,576 L936,578 L934,578 Z M926,578 L926,576 L928,576 L928,578 L926,578 Z M918,578 L918,576 L920,576 L920,578 L918,578 Z M910,578 L910,576 L912,576 L912,578 L910,578 Z M902,578 L902,576 L904,576 L904,578 L902,578 Z M894,578 L894,576 L896,576 L896,578 L894,578 Z M886,578 L886,576 L888,576 L888,578 L886,578 Z M878,578 L878,576 L880,576 L880,578 L878,578 Z M870,578 L870,576 L872,576 L872,578 L870,578 Z M862,578 L862,576 L864,576 L864,578 L862,578 Z M854,578 L854,576 L856,576 L856,578 L854,578 Z M846,578 L846,576 L848,576 L848,578 L846,578 Z M838,578 L838,576 L840,576 L840,578 L838,578 Z M830,578 L830,576 L832,576 L832,578 L830,578 Z M822,578 L822,576 L824,576 L824,578 L822,578 Z M814,578 L814,576 L816,576 L816,578 L814,578 Z M806,578 L806,576 L808,576 L808,578 L806,578 Z M798,578 L798,576 L800,576 L800,578 L798,578 Z M790,578 L790,576 L792,576 L792,578 L790,578 Z M782,578 L782,576 L784,576 L784,578 L782,578 Z M774,578 L774,576 L776,576 L776,578 L774,578 Z M766,578 L766,576 L768,576 L768,578 L766,578 Z M758,578 L758,576 L760,576 L760,578 L758,578 Z M750,578 L750,576 L752,576 L752,578 L750,578 Z M742,578 L742,576 L744,576 L744,578 L742,578 Z M734,578 L734,576 L736,576 L736,578 L734,578 Z M726,578 L726,576 L728,576 L728,578 L726,578 Z M718,578 L718,576 L720,576 L720,578 L718,578 Z M710,578 L710,576 L712,576 L712,578 L710,578 Z M702,578 L702,576 L704,576 L704,578 L702,578 Z M694,578 L694,576 L696,576 L696,578 L694,578 Z M686,578 L686,576 L688,576 L688,578 L686,578 Z M678,578 L678,576 L680,576 L680,578 L678,578 Z M670,578 L670,576 L672,576 L672,578 L670,578 Z M662,578 L662,576 L664,576 L664,578 L662,578 Z M654,578 L654,576 L656,576 L656,578 L654,578 Z M646,578 L646,576 L648,576 L648,578 L646,578 Z M638,578 L638,576 L640,576 L640,578 L638,578 Z M630,578 L630,576 L632,576 L632,578 L630,578 Z M622,578 L622,576 L624,576 L624,578 L622,578 Z M614,578 L614,576 L616,576 L616,578 L614,578 Z M606,578 L606,576 L608,576 L608,578 L606,578 Z M598,578 L598,576 L600,576 L600,578 L598,578 Z M590,578 L590,576 L592,576 L592,578 L590,578 Z M582,578 L582,576 L584,576 L584,578 L582,578 Z M574,578 L574,576 L576,576 L576,578 L574,578 Z M566,578 L566,576 L568,576 L568,578 L566,578 Z M558,578 L558,576 L560,576 L560,578 L558,578 Z M550,578 L550,576 L552,576 L552,578 L550,578 Z M542,578 L542,576 L544,576 L544,578 L542,578 Z M534,578 L534,576 L536,576 L536,578 L534,578 Z M526,578 L526,576 L528,576 L528,578 L526,578 Z M518,578 L518,576 L520,576 L520,578 L518,578 Z M510,578 L510,576 L512,576 L512,578 L510,578 Z M502,578 L502,576 L504,576 L504,578 L502,578 Z M494,578 L494,576 L496,576 L496,578 L494,578 Z M486,578 L486,576 L488,576 L488,578 L486,578 Z M478,578 L478,576 L480,576 L480,578 L478,578 Z M470,578 L470,576 L472,576 L472,578 L470,578 Z M462,578 L462,576 L464,576 L464,578 L462,578 Z M454,578 L454,576 L456,576 L456,578 L454,578 Z M446,578 L446,576 L448,576 L448,578 L446,578 Z M438,578 L438,576 L440,576 L440,578 L438,578 Z M430,578 L430,576 L432,576 L432,578 L430,578 Z M422,578 L422,576 L424,576 L424,578 L422,578 Z M414,578 L414,576 L416,576 L416,578 L414,578 Z M406,578 L406,576 L408,576 L408,578 L406,578 Z M398,578 L398,576 L400,576 L400,578 L398,578 Z M390,578 L390,576 L392,576 L392,578 L390,578 Z M382,578 L382,576 L384,576 L384,578 L382,578 Z M374,578 L374,576 L376,576 L376,578 L374,578 Z M366,578 L366,576 L368,576 L368,578 L366,578 Z M358,578 L358,576 L360,576 L360,578 L358,578 Z M350,578 L350,576 L352,576 L352,578 L350,578 Z M342,578 L342,576 L344,576 L344,578 L342,578 Z M334,578 L334,576 L336,576 L336,578 L334,578 Z M326,578 L326,576 L328,576 L328,578 L326,578 Z M318,578 L318,576 L320,576 L320,578 L318,578 Z M310,578 L310,576 L312,576 L312,578 L310,578 Z M302,578 L302,576 L304,576 L304,578 L302,578 Z M294,578 L294,576 L296,576 L296,578 L294,578 Z M286,578 L286,576 L288,576 L288,578 L286,578 Z M278,578 L278,576 L280,576 L280,578 L278,578 Z M270,578 L270,576 L272,576 L272,578 L270,578 Z M262,578 L262,576 L264,576 L264,578 L262,578 Z M254,578 L254,576 L256,576 L256,578 L254,578 Z M246,578 L246,576 L248,576 L248,578 L246,578 Z M238,578 L238,576 L240,576 L240,578 L238,578 Z M230,578 L230,576 L232,576 L232,578 L230,578 Z M222,578 L222,576 L224,576 L224,578 L222,578 Z M214,578 L214,576 L216,576 L216,578 L214,578 Z M206,578 L206,576 L208,576 L208,578 L206,578 Z M198,578 L198,576 L200,576 L200,578 L198,578 Z M190,578 L190,576 L192,576 L192,578 L190,578 Z M182,578 L182,576 L184,576 L184,578 L182,578 Z M174,578 L174,576 L176,576 L176,578 L174,578 Z M166,578 L166,576 L168,576 L168,578 L166,578 Z M158,578 L158,576 L160,576 L160,578 L158,578 Z M150,578 L150,576 L152,576 L152,578 L150,578 Z M142,578 L142,576 L144,576 L144,578 L142,578 Z M134,578 L134,576 L136,576 L136,578 L134,578 Z M126,578 L126,576 L128,576 L128,578 L126,578 Z M118,578 L118,576 L120,576 L120,578 L118,578 Z M110,578 L110,576 L112,576 L112,578 L110,578 Z M102,578 L102,576 L104,576 L104,578 L102,578 Z M94,578 L94,576 L96,576 L96,578 L94,578 Z M86,578 L86,576 L88,576 L88,578 L86,578 Z M78,578 L78,576 L80,576 L80,578 L78,578 Z M70,578 L70,576 L72,576 L72,578 L70,578 Z M62,578 L62,576 L64,576 L64,578 L62,578 Z M54,578 L54,576 L56,576 L56,578 L54,578 Z M46,578 L46,576 L48,576 L48,578 L46,578 Z M38,578 L38,576 L40,576 L40,578 L38,578 Z M30,578 L30,576 L32,576 L32,578 L30,578 Z M22,578 L22,576 L24,576 L24,578 L22,578 Z M14,578 L14,576 L16,576 L16,578 L14,578 Z M6,578 L6,576 L8,576 L8,578 L6,578 Z M3,571 L5,571 L5,573 L3,573 L3,571 Z M3,563 L5,563 L5,565 L3,565 L3,563 Z M3,555 L5,555 L5,557 L3,557 L3,555 Z M3,547 L5,547 L5,549 L3,549 L3,547 Z M3,539 L5,539 L5,541 L3,541 L3,539 Z M3,531 L5,531 L5,533 L3,533 L3,531 Z M3,523 L5,523 L5,525 L3,525 L3,523 Z M3,515 L5,515 L5,517 L3,517 L3,515 Z M3,507 L5,507 L5,509 L3,509 L3,507 Z M3,499 L5,499 L5,501 L3,501 L3,499 Z M3,491 L5,491 L5,493 L3,493 L3,491 Z M3,483 L5,483 L5,485 L3,485 L3,483 Z M3,475 L5,475 L5,477 L3,477 L3,475 Z M3,467 L5,467 L5,469 L3,469 L3,467 Z M3,459 L5,459 L5,461 L3,461 L3,459 Z M3,451 L5,451 L5,453 L3,453 L3,451 Z M3,443 L5,443 L5,445 L3,445 L3,443 Z M3,435 L5,435 L5,437 L3,437 L3,435 Z M3,427 L5,427 L5,429 L3,429 L3,427 Z M3,419 L5,419 L5,421 L3,421 L3,419 Z M3,411 L5,411 L5,413 L3,413 L3,411 Z M3,403 L5,403 L5,405 L3,405 L3,403 Z M3,395 L5,395 L5,397 L3,397 L3,395 Z M3,387 L5,387 L5,389 L3,389 L3,387 Z M3,379 L5,379 L5,381 L3,381 L3,379 Z M3,371 L5,371 L5,373 L3,373 L3,371 Z M3,363 L5,363 L5,365 L3,365 L3,363 Z M3,355 L5,355 L5,357 L3,357 L3,355 Z M3,347 L5,347 L5,349 L3,349 L3,347 Z M3,339 L5,339 L5,341 L3,341 L3,339 Z M3,331 L5,331 L5,333 L3,333 L3,331 Z M3,323 L5,323 L5,325 L3,325 L3,323 Z M3,315 L5,315 L5,317 L3,317 L3,315 Z M3,307 L5,307 L5,309 L3,309 L3,307 Z M3,299 L5,299 L5,301 L3,301 L3,299 Z M3,291 L5,291 L5,293 L3,293 L3,291 Z M3,283 L5,283 L5,285 L3,285 L3,283 Z M3,275 L5,275 L5,277 L3,277 L3,275 Z M3,267 L5,267 L5,269 L3,269 L3,267 Z M3,259 L5,259 L5,261 L3,261 L3,259 Z M3,251 L5,251 L5,253 L3,253 L3,251 Z M3,243 L5,243 L5,245 L3,245 L3,243 Z M3,235 L5,235 L5,237 L3,237 L3,235 Z M3,227 L5,227 L5,229 L3,229 L3,227 Z M3,219 L5,219 L5,221 L3,221 L3,219 Z M3,211 L5,211 L5,213 L3,213 L3,211 Z M3,203 L5,203 L5,205 L3,205 L3,203 Z M3,195 L5,195 L5,197 L3,197 L3,195 Z M3,187 L5,187 L5,189 L3,189 L3,187 Z M3,179 L5,179 L5,181 L3,181 L3,179 Z M3,171 L5,171 L5,173 L3,173 L3,171 Z M3,163 L5,163 L5,165 L3,165 L3,163 Z M3,155 L5,155 L5,157 L3,157 L3,155 Z M3,147 L5,147 L5,149 L3,149 L3,147 Z M3,139 L5,139 L5,141 L3,141 L3,139 Z M3,131 L5,131 L5,133 L3,133 L3,131 Z M3,123 L5,123 L5,125 L3,125 L3,123 Z M3,115 L5,115 L5,117 L3,117 L3,115 Z M3,107 L5,107 L5,109 L3,109 L3,107 Z M3,99 L5,99 L5,101 L3,101 L3,99 Z M3,91 L5,91 L5,93 L3,93 L3,91 Z M3,83 L5,83 L5,85 L3,85 L3,83 Z M3,75 L5,75 L5,77 L3,77 L3,75 Z M3,67 L5,67 L5,69 L3,69 L3,67 Z M3,59 L5,59 L5,61 L3,61 L3,59 Z M3,51 L5,51 L5,53 L3,53 L3,51 Z M3,43 L5,43 L5,45 L3,45 L3,43 Z M3,35 L5,35 L5,37 L3,37 L3,35 Z M3,27 L5,27 L5,29 L3,29 L3,27 Z M3,19 L5,19 L5,21 L3,21 L3,19 Z M3,11 L5,11 L5,13 L3,13 L3,11 Z M5,3 L5,5 L4,5 L5,4 L5,5 L3,5 L3,4 C3,3.44771525 3.44771525,3 4,3 L5,3 Z M13,3 L13,5 L11,5 L11,3 L13,3 Z M21,3 L21,5 L19,5 L19,3 L21,3 Z M29,3 L29,5 L27,5 L27,3 L29,3 Z M37,3 L37,5 L35,5 L35,3 L37,3 Z M45,3 L45,5 L43,5 L43,3 L45,3 Z M53,3 L53,5 L51,5 L51,3 L53,3 Z M61,3 L61,5 L59,5 L59,3 L61,3 Z M69,3 L69,5 L67,5 L67,3 L69,3 Z M77,3 L77,5 L75,5 L75,3 L77,3 Z M85,3 L85,5 L83,5 L83,3 L85,3 Z M93,3 L93,5 L91,5 L91,3 L93,3 Z M101,3 L101,5 L99,5 L99,3 L101,3 Z M109,3 L109,5 L107,5 L107,3 L109,3 Z M117,3 L117,5 L115,5 L115,3 L117,3 Z M125,3 L125,5 L123,5 L123,3 L125,3 Z M133,3 L133,5 L131,5 L131,3 L133,3 Z M141,3 L141,5 L139,5 L139,3 L141,3 Z M149,3 L149,5 L147,5 L147,3 L149,3 Z M157,3 L157,5 L155,5 L155,3 L157,3 Z M165,3 L165,5 L163,5 L163,3 L165,3 Z M173,3 L173,5 L171,5 L171,3 L173,3 Z M181,3 L181,5 L179,5 L179,3 L181,3 Z M189,3 L189,5 L187,5 L187,3 L189,3 Z M197,3 L197,5 L195,5 L195,3 L197,3 Z M205,3 L205,5 L203,5 L203,3 L205,3 Z M213,3 L213,5 L211,5 L211,3 L213,3 Z M221,3 L221,5 L219,5 L219,3 L221,3 Z M229,3 L229,5 L227,5 L227,3 L229,3 Z M237,3 L237,5 L235,5 L235,3 L237,3 Z M245,3 L245,5 L243,5 L243,3 L245,3 Z M253,3 L253,5 L251,5 L251,3 L253,3 Z M261,3 L261,5 L259,5 L259,3 L261,3 Z M269,3 L269,5 L267,5 L267,3 L269,3 Z M277,3 L277,5 L275,5 L275,3 L277,3 Z M285,3 L285,5 L283,5 L283,3 L285,3 Z M293,3 L293,5 L291,5 L291,3 L293,3 Z M301,3 L301,5 L299,5 L299,3 L301,3 Z M309,3 L309,5 L307,5 L307,3 L309,3 Z M317,3 L317,5 L315,5 L315,3 L317,3 Z M325,3 L325,5 L323,5 L323,3 L325,3 Z M333,3 L333,5 L331,5 L331,3 L333,3 Z M341,3 L341,5 L339,5 L339,3 L341,3 Z M349,3 L349,5 L347,5 L347,3 L349,3 Z M357,3 L357,5 L355,5 L355,3 L357,3 Z M365,3 L365,5 L363,5 L363,3 L365,3 Z M373,3 L373,5 L371,5 L371,3 L373,3 Z M381,3 L381,5 L379,5 L379,3 L381,3 Z M389,3 L389,5 L387,5 L387,3 L389,3 Z M397,3 L397,5 L395,5 L395,3 L397,3 Z M405,3 L405,5 L403,5 L403,3 L405,3 Z M413,3 L413,5 L411,5 L411,3 L413,3 Z M421,3 L421,5 L419,5 L419,3 L421,3 Z M429,3 L429,5 L427,5 L427,3 L429,3 Z M437,3 L437,5 L435,5 L435,3 L437,3 Z M445,3 L445,5 L443,5 L443,3 L445,3 Z M453,3 L453,5 L451,5 L451,3 L453,3 Z M461,3 L461,5 L459,5 L459,3 L461,3 Z M469,3 L469,5 L467,5 L467,3 L469,3 Z M477,3 L477,5 L475,5 L475,3 L477,3 Z M485,3 L485,5 L483,5 L483,3 L485,3 Z M493,3 L493,5 L491,5 L491,3 L493,3 Z M501,3 L501,5 L499,5 L499,3 L501,3 Z M509,3 L509,5 L507,5 L507,3 L509,3 Z M517,3 L517,5 L515,5 L515,3 L517,3 Z M525,3 L525,5 L523,5 L523,3 L525,3 Z M533,3 L533,5 L531,5 L531,3 L533,3 Z M541,3 L541,5 L539,5 L539,3 L541,3 Z M549,3 L549,5 L547,5 L547,3 L549,3 Z M557,3 L557,5 L555,5 L555,3 L557,3 Z M565,3 L565,5 L563,5 L563,3 L565,3 Z M573,3 L573,5 L571,5 L571,3 L573,3 Z M581,3 L581,5 L579,5 L579,3 L581,3 Z M589,3 L589,5 L587,5 L587,3 L589,3 Z M597,3 L597,5 L595,5 L595,3 L597,3 Z M605,3 L605,5 L603,5 L603,3 L605,3 Z M613,3 L613,5 L611,5 L611,3 L613,3 Z M621,3 L621,5 L619,5 L619,3 L621,3 Z M629,3 L629,5 L627,5 L627,3 L629,3 Z M637,3 L637,5 L635,5 L635,3 L637,3 Z M645,3 L645,5 L643,5 L643,3 L645,3 Z M653,3 L653,5 L651,5 L651,3 L653,3 Z M661,3 L661,5 L659,5 L659,3 L661,3 Z M669,3 L669,5 L667,5 L667,3 L669,3 Z M677,3 L677,5 L675,5 L675,3 L677,3 Z M685,3 L685,5 L683,5 L683,3 L685,3 Z M693,3 L693,5 L691,5 L691,3 L693,3 Z M701,3 L701,5 L699,5 L699,3 L701,3 Z M709,3 L709,5 L707,5 L707,3 L709,3 Z M717,3 L717,5 L715,5 L715,3 L717,3 Z M725,3 L725,5 L723,5 L723,3 L725,3 Z M733,3 L733,5 L731,5 L731,3 L733,3 Z M741,3 L741,5 L739,5 L739,3 L741,3 Z M749,3 L749,5 L747,5 L747,3 L749,3 Z M757,3 L757,5 L755,5 L755,3 L757,3 Z M765,3 L765,5 L763,5 L763,3 L765,3 Z M773,3 L773,5 L771,5 L771,3 L773,3 Z M781,3 L781,5 L779,5 L779,3 L781,3 Z M789,3 L789,5 L787,5 L787,3 L789,3 Z M797,3 L797,5 L795,5 L795,3 L797,3 Z M805,3 L805,5 L803,5 L803,3 L805,3 Z M813,3 L813,5 L811,5 L811,3 L813,3 Z M821,3 L821,5 L819,5 L819,3 L821,3 Z M829,3 L829,5 L827,5 L827,3 L829,3 Z M837,3 L837,5 L835,5 L835,3 L837,3 Z M845,3 L845,5 L843,5 L843,3 L845,3 Z M853,3 L853,5 L851,5 L851,3 L853,3 Z M861,3 L861,5 L859,5 L859,3 L861,3 Z M869,3 L869,5 L867,5 L867,3 L869,3 Z M877,3 L877,5 L875,5 L875,3 L877,3 Z M885,3 L885,5 L883,5 L883,3 L885,3 Z M893,3 L893,5 L891,5 L891,3 L893,3 Z M901,3 L901,5 L899,5 L899,3 L901,3 Z M909,3 L909,5 L907,5 L907,3 L909,3 Z M917,3 L917,5 L915,5 L915,3 L917,3 Z M925,3 L925,5 L923,5 L923,3 L925,3 Z M933,3 L933,5 L931,5 L931,3 L933,3 Z M941,3 L941,5 L939,5 L939,3 L941,3 Z M949,3 L949,5 L947,5 L947,3 L949,3 Z" id="矩形"></path>
                <polygon id="路径-3" points="77.752534 0 77.752534 8 8 8 8 62.7262079 0 62.7262079 0 0"></polygon>
                <polygon id="路径-3备份-2" transform="translate(38.876267, 549.636896) scale(1, -1) translate(-38.876267, -549.636896) " points="77.752534 518.273792 77.752534 526.273792 8 526.273 8 581 0 581 0 518.273792"></polygon>
                <polygon id="路径-3备份" transform="translate(916.123733, 31.363104) scale(-1, 1) translate(-916.123733, -31.363104) " points="955 0 955 8 885.247 8 885.247466 62.7262079 877.247466 62.7262079 877.247466 0"></polygon>
                <polygon id="路径-3备份-3" transform="translate(916.123733, 549.636896) scale(-1, -1) translate(-916.123733, -549.636896) " points="955 518.273792 955 526.273792 885.247 526.273 885.247466 581 877.247466 581 877.247466 518.273792"></polygon>
            </g>
        </g>
    </g>
</svg>